<?xml version="1.0" standalone="no"?>
<!DOCTYPE svg PUBLIC "-//W3C//DTD SVG 20010904//EN"
 "http://www.w3.org/TR/2001/REC-SVG-20010904/DTD/svg10.dtd">
<svg version="1.0" xmlns="http://www.w3.org/2000/svg"
 width="1024.000000pt" height="1024.000000pt" viewBox="0 0 1024.000000 1024.000000"
 preserveAspectRatio="xMidYMid meet">

<g transform="translate(0.000000,1024.000000) scale(0.100000,-0.100000)"
fill="#D4AF37" stroke="none">
<path d="M1631 9814 c-162 -43 -304 -187 -340 -345 -7 -29 -11 -790 -11 -2220
l0 -2176 -84 -76 c-379 -346 -677 -895 -764 -1412 -39 -229 -43 -374 -40
-1400 l3 -980 23 -80 c45 -161 125 -297 244 -413 106 -104 221 -171 375 -219
l88 -28 1880 0 1880 0 88 28 c293 92 507 299 595 577 11 36 24 76 28 90 4 14
10 259 13 545 l6 520 1411 0 c1391 1 1411 1 1445 21 19 11 44 38 57 60 22 38
23 44 19 264 -5 248 -10 276 -74 405 -47 93 -162 207 -259 258 -129 66 -132
67 -786 67 l-588 0 0 405 0 405 1373 0 c1496 0 1423 -3 1540 56 69 35 177 145
210 214 61 127 57 -55 57 2605 0 2132 -2 2438 -15 2494 -40 167 -161 294 -320
335 -53 14 -472 16 -4030 15 -3436 0 -3977 -2 -4024 -15z m8036 -310 c21 -17
47 -46 58 -65 20 -34 20 -52 20 -2454 0 -2212 -1 -2423 -16 -2456 -24 -52 -78
-110 -124 -130 -38 -18 -132 -19 -2180 -19 l-2140 0 -44 73 c-24 39 -75 116
-113 169 -37 53 -68 99 -68 102 0 4 983 6 2184 6 1276 0 2194 4 2208 9 33 13
67 52 78 92 6 22 10 827 10 2218 l0 2183 -21 38 c-11 20 -35 45 -52 56 -31 19
-106 19 -3807 16 -3499 -3 -3778 -5 -3810 -20 -19 -9 -45 -32 -57 -51 l-23
-34 0 -1047 0 -1047 -49 -7 c-48 -6 -113 -41 -139 -74 -10 -13 -12 214 -10
1175 l3 1191 30 38 c17 20 46 45 65 55 34 19 151 19 3996 17 l3962 -3 39 -31z
m-399 -2471 l2 -2033 -2241 0 -2241 0 -66 60 c-86 79 -229 188 -372 284 -63
43 -115 80 -114 84 0 4 13 34 29 67 51 104 35 232 -39 330 l-24 30 59 80 c107
147 196 344 230 510 20 97 15 296 -9 387 -40 148 -96 228 -194 278 -49 24 -74
30 -125 30 -120 0 -171 -36 -281 -198 -86 -126 -155 -203 -202 -222 -25 -10
-34 -9 -64 9 -75 46 -115 110 -166 261 -60 177 -113 252 -218 308 -110 59
-231 75 -350 47 -84 -20 -135 -47 -197 -106 -59 -56 -79 -93 -134 -249 -23
-63 -57 -138 -76 -167 -36 -55 -106 -113 -134 -113 -48 1 -142 92 -227 222
l-64 97 0 1015 0 1016 2058 2 c1131 2 2755 3 3607 3 l1550 0 3 -2032z m-6210
32 c64 -19 81 -41 121 -157 58 -167 97 -235 185 -324 155 -155 290 -185 460
-100 93 46 171 123 263 264 41 61 78 112 83 112 5 0 17 -24 27 -52 14 -42 18
-82 17 -198 0 -135 -2 -151 -31 -232 -35 -102 -87 -195 -181 -328 l-68 -95
-934 -3 -934 -2 -29 27 c-43 41 -171 238 -211 323 -48 107 -70 213 -70 345 0
117 24 230 47 223 7 -2 43 -51 82 -109 96 -144 182 -229 281 -277 74 -35 85
-37 174 -37 84 0 102 4 154 29 72 35 180 136 224 209 19 31 51 106 73 166 55
157 70 184 116 203 76 33 82 33 151 13z m-1348 -1110 c72 -107 73 -108 56
-134 -45 -68 -60 -116 -60 -191 -1 -64 4 -85 29 -140 l31 -64 -86 -56 c-47
-31 -91 -59 -97 -64 -10 -6 -13 85 -13 441 l0 448 34 -66 c18 -37 66 -115 106
-174z m2284 -318 c19 -26 19 -30 5 -55 l-15 -27 -981 -3 c-882 -2 -983 -1
-997 14 -22 21 -20 60 4 84 20 20 31 20 991 18 l972 -3 21 -28z m77 -441 c337
-201 590 -421 798 -696 254 -337 399 -699 453 -1130 10 -80 13 -343 13 -1110
0 -932 -1 -1010 -18 -1069 -27 -100 -75 -186 -143 -259 -68 -74 -139 -121
-242 -161 l-67 -26 -1825 -3 c-2032 -3 -1896 -7 -2043 65 -96 48 -209 160
-260 259 -69 134 -67 88 -67 1207 0 1003 3 1103 36 1282 119 648 558 1251
1177 1616 67 40 131 78 142 85 16 10 207 13 971 13 l950 1 125 -74z m2489
-1493 l0 -398 -474 0 -474 0 -6 66 c-18 196 -83 477 -149 642 l-34 87 568 0
569 0 0 -397z m1524 -713 c65 -33 140 -117 165 -185 17 -46 21 -79 21 -180 l0
-125 -1330 0 -1330 0 0 260 0 260 1213 -2 1212 -3 49 -25z"/>
<path d="M7746 8770 c-88 -27 -122 -141 -65 -214 32 -40 54 -48 177 -60 l114
-11 -58 -46 c-33 -25 -233 -183 -446 -352 -213 -169 -392 -307 -399 -307 -6 0
-219 96 -473 214 -253 118 -472 215 -486 216 -88 7 -27 45 -1077 -663 -211
-142 -219 -152 -211 -238 9 -88 89 -142 170 -115 29 10 356 229 943 630 l150
102 465 -215 c409 -188 472 -215 525 -219 53 -3 65 0 100 23 50 34 439 338
735 573 124 99 226 178 228 177 2 -2 -5 -56 -14 -121 -16 -112 -16 -121 0
-154 23 -48 60 -72 115 -77 52 -5 98 18 128 63 12 19 30 114 60 323 23 163 43
310 43 327 0 32 -28 77 -60 94 -13 7 -614 64 -632 59 -1 0 -16 -5 -32 -9z"/>
<path d="M7764 7490 c-12 -4 -31 -21 -43 -36 l-21 -27 0 -893 0 -894 -235 0
-235 0 0 555 c0 604 0 600 -56 644 -27 21 -36 22 -167 19 l-139 -3 -29 -33
-29 -32 0 -575 0 -575 -245 0 -245 0 0 733 c0 717 -1 733 -20 765 -32 52 -74
64 -206 60 -126 -3 -154 -15 -186 -79 -17 -31 -18 -88 -18 -756 l0 -723 -230
0 -230 0 0 315 c0 343 -3 362 -55 403 -25 20 -39 22 -160 22 -119 0 -135 -2
-159 -21 -55 -43 -56 -51 -56 -398 l0 -319 -130 -4 -130 -3 -37 -38 c-35 -35
-38 -41 -38 -97 0 -51 4 -62 30 -90 16 -17 45 -35 65 -41 23 -7 621 -9 1810
-7 1724 3 1776 4 1803 22 57 38 78 137 42 192 -33 51 -71 64 -182 64 l-103 0
0 880 c0 960 3 913 -56 959 -24 19 -39 21 -158 20 -72 0 -141 -4 -152 -9z"/>
<path d="M2797 4750 c-609 -96 -1073 -541 -1194 -1147 -24 -123 -24 -413 0
-536 59 -294 192 -544 401 -752 302 -301 695 -446 1127 -414 774 57 1359 717
1326 1494 -12 273 -87 506 -234 730 -209 318 -516 525 -903 610 -88 19 -432
29 -523 15z m528 -304 c199 -53 414 -181 545 -324 315 -343 396 -823 211
-1252 -197 -458 -688 -744 -1184 -691 -403 44 -745 280 -917 635 -91 188 -127
362 -117 576 19 408 249 773 605 957 207 108 326 134 577 129 156 -3 193 -7
280 -30z"/>
<path d="M2369 4051 c-69 -22 -99 -61 -99 -130 0 -21 16 -106 36 -188 48 -200
49 -183 -14 -188 -62 -5 -95 -23 -122 -68 -26 -42 -25 -91 1 -133 29 -48 53
-58 143 -64 l80 -5 17 -65 c71 -276 154 -570 169 -601 41 -80 140 -112 205
-68 66 46 89 114 195 574 39 165 45 181 55 134 25 -123 137 -575 150 -606 29
-70 96 -123 153 -123 40 0 93 38 120 87 17 30 182 638 182 669 0 2 33 4 73 4
118 0 174 48 165 142 -5 44 -11 57 -42 85 -34 31 -62 39 -118 35 -10 -1 -18 1
-18 4 0 2 16 75 35 161 37 164 43 230 24 266 -21 40 -52 67 -91 78 -49 13
-119 -15 -146 -60 -10 -17 -35 -115 -57 -228 -21 -109 -40 -204 -43 -211 -3
-9 -27 -12 -91 -10 l-86 3 -47 209 c-47 211 -59 241 -110 279 -36 27 -100 27
-135 1 -48 -35 -70 -91 -107 -274 -20 -96 -38 -185 -41 -197 -5 -22 -10 -23
-95 -23 -50 0 -90 2 -90 4 0 26 -94 425 -105 447 -26 50 -91 76 -146 60z m370
-788 c0 -10 -6 -49 -13 -88 -14 -75 -14 -74 -36 33 -14 72 -14 72 20 72 22 0
30 -5 29 -17z m621 9 c0 -14 -22 -126 -27 -142 -3 -8 -11 17 -19 55 -17 97
-18 95 16 95 17 0 30 -4 30 -8z"/>
</g>
</svg>
